<?xml version="1.0" standalone="no"?>
<!DOCTYPE svg PUBLIC "-//W3C//DTD SVG 20010904//EN"
 "http://www.w3.org/TR/2001/REC-SVG-20010904/DTD/svg10.dtd">
<svg version="1.0" xmlns="http://www.w3.org/2000/svg"
 width="700.000000pt" height="700.000000pt" viewBox="0 0 700.000000 700.000000"
 preserveAspectRatio="xMidYMid meet">
<metadata>
Created by potrace 1.11, written by Peter Selinger 2001-2013
</metadata>
<g transform="translate(0.000000,700.000000) scale(0.100000,-0.100000)"
fill="#000000" stroke="none">
<path d="M3500 5795 c0 -13 -116 -15 -912 -17 l-913 -3 -58 -23 c-73 -30 -149
-104 -185 -179 l-27 -58 -3 -1995 -2 -1996 32 -54 c59 -98 205 -177 410 -222
l103 -23 1690 0 1690 0 58 23 c73 30 149 104 185 179 l27 58 0 1840 0 1840
-27 58 c-56 118 -164 191 -307 204 -61 6 -64 5 -56 -13 42 -102 40 10 43
-1869 2 -1200 -1 -1792 -8 -1838 -13 -84 -39 -138 -94 -195 -53 -57 -118 -89
-203 -102 -47 -8 -529 -10 -1528 -7 -1312 3 -1467 5 -1528 20 -100 24 -122 37
-122 71 0 24 7 33 40 50 40 21 43 21 1430 26 l1390 5 58 23 c73 30 149 104
185 179 l27 58 0 1840 0 1840 -27 58 c-36 76 -112 149 -185 179 -56 22 -70 23
-395 26 -278 3 -339 6 -348 18 -19 21 -440 21 -440 -1z"/>
</g>
</svg>
