<?xml version="1.0" standalone="no"?>
<!DOCTYPE svg PUBLIC "-//W3C//DTD SVG 20010904//EN"
 "http://www.w3.org/TR/2001/REC-SVG-20010904/DTD/svg10.dtd">
<svg version="1.0" xmlns="http://www.w3.org/2000/svg"
 width="700.000000pt" height="700.000000pt" viewBox="0 0 700.000000 700.000000"
 preserveAspectRatio="xMidYMid meet">
<metadata>
Created by potrace 1.11, written by Peter Selinger 2001-2013
</metadata>
<g transform="translate(0.000000,700.000000) scale(0.100000,-0.100000)"
fill="#000000" stroke="none">
<path d="M3840 6265 c0 -13 -158 -15 -1360 -15 -970 0 -1374 -3 -1412 -11 -75
-16 -141 -82 -157 -157 -8 -38 -11 -711 -11 -2451 0 -2337 0 -2400 19 -2473
48 -185 184 -328 367 -385 56 -17 165 -18 2359 -18 2134 0 2302 1 2331 17 45
24 92 76 106 117 10 29 13 526 13 2476 l0 2440 -28 48 c-30 51 -83 91 -134
102 l-33 7 0 -2500 0 -2499 -21 -26 c-11 -15 -37 -31 -57 -37 -26 -8 -698 -10
-2242 -8 -2045 3 -2207 4 -2236 20 -66 36 -68 74 -6 105 36 17 120 18 2097 23
1183 3 2069 9 2080 14 43 19 86 59 108 99 l22 42 0 2451 0 2451 -30 48 c-21
35 -45 56 -80 74 l-49 26 -492 3 c-418 2 -494 5 -504 17 -19 23 -650 22 -650
0z"/>
</g>
</svg>
